<svg xmlns="http://www.w3.org/2000/svg" width="121" height="137" viewBox="0 0 121 137">
    <g fill="none" fill-rule="evenodd" transform="matrix(-1 0 0 1 121 -1)">
        <ellipse cx="60.5" cy="126.133" fill="#343D52" fill-opacity=".099" rx="50.5" ry="11.5"/>
        <g fill-rule="nonzero">
            <g fill="#FFDB6F" transform="translate(12.1 1.137)">
                <path d="M4.34 37.706c2.283.013 4.122 1.9 4.112 4.222-.012 2.321-1.87 4.19-4.154 4.18-2.283-.012-4.123-1.9-4.112-4.222.024-2.315 1.876-4.178 4.154-4.18z"/>
                <ellipse cx="69.438" cy="5.252" rx="5.167" ry="5.252"/>
            </g>
            <path fill="#B5B5B5" d="M63.525 60.567v8.059h-8.067v-8.059z"/>
            <path fill="#454545" d="M67.558 56.538v4.03H51.425v-4.03c.016-4.444 3.618-8.042 8.067-8.058 4.448-.006 8.06 3.594 8.066 8.038v.02z"/>
            <path fill="#62BEFF" d="M35.292 4.77L22.698 17.254l-.021-.021c-3.41-3.515-3.337-9.143.162-12.567a8.82 8.82 0 0 1 12.348 0l.105.104z"/>
            <path fill="#454545" d="M90.75 64.596l-4.034 4.03-4.033 4.029-8.066-8.059 8.066-8.058z"/>
            <path fill="#B5B5B5" d="M68.073 60.37v-4.159c.008-4.586-3.702-8.311-8.285-8.32a8.304 8.304 0 0 0-4.768 1.498l-5.612-5.616 12.533-12.417L74.308 43.73l10.392 10.4-2.079 2.08-8.313 8.32-2.079 2.08-6.235-6.24h2.079z"/>
            <path fill="#D3D3D3" d="M37.862 2.144l26.671 26.913-3.055 3.004-.103-.103-12.386 12.346.04.041-3.178 3.127L19.158 20.56l3.014-2.984 12.47-12.263z"/>
            <g fill="#454545">
                <path d="M79.525 41.255l-4.032 4.027-2.851-2.848 4.032-4.028z"/>
                <path d="M85.572 44.46l-2.851 2.85-10.08-10.07 2.851-2.848z"/>
            </g>
            <path fill="#B5B5B5" d="M90.265 75.677c-.545 0-1.069-.2-1.453-.558L84.7 71.315l2.907-2.69 2.658 2.46.603-.557 2.907 2.69-2.056 1.901a2.141 2.141 0 0 1-1.454.558z"/>
            <path fill="#454545" d="M64.533 71.647h-8.066c-1.113 0-2.017-.992-2.017-2.216v-8.864h4.033v6.648h4.034v-6.648h4.033v8.864c0 1.224-.903 2.216-2.017 2.216z"/>
            <path fill="#FFF" d="M58.483 52.51h4.033v4.028h-4.033z"/>
            <g fill="#454545">
                <path d="M57.72 69.506L30.926 124.8l-3.697-1.838 26.795-55.293zM92.741 122.958l-3.698 1.837L62.26 69.496l3.698-1.837zM57.929 68.573h4.12v55.298h-4.12z"/>
                <path d="M59.99 108.221c-.221 0-.442-.035-.652-.106l-18.543-6.26 1.302-3.965 17.892 6.045 17.893-6.04 1.302 3.964-18.544 6.26c-.212.069-.43.104-.65.102z"/>
            </g>
            <g fill="#62BEFF">
                <path d="M8.744 76.544L4.4 76.522l.065-8.687 4.343.043z"/>
                <path d="M10.947 70.053l-.022 4.338-8.685-.043.022-4.338z"/>
            </g>
            <g fill="#F9B544">
                <path d="M120.966 35.416l-2.913 2.878-6.18-6.104 2.913-2.877z"/>
                <path d="M120.966 32.188l-6.18 6.104-2.913-2.877 6.18-6.104zM.043 4.304h4.12v4.069H.043z"/>
            </g>
            <g fill="#00448F">
                <path d="M34.554 59.282l-.021 4.154-4.111-.02.02-4.154zM106.647 1.137h4.111v4.154h-4.111z"/>
            </g>
            <path fill="#62BEFF" d="M106.883 63.59h4.033v4.028h-4.033z"/>
        </g>
    </g>
</svg>
