<svg xmlns="http://www.w3.org/2000/svg" xmlns:xlink="http://www.w3.org/1999/xlink" width="20" height="20" viewBox="0 0 20 20">
    <defs>
        <path id="a" d="M14.75 7.28L16 6.03v8.095A1.877 1.877 0 0 1 14.125 16H1.875A1.877 1.877 0 0 1 0 14.125V1.875C0 .841.841 0 1.875 0h8.104L8.73 1.25H1.875a.626.626 0 0 0-.625.625v12.25c0 .345.28.625.625.625h12.25c.345 0 .625-.28.625-.625V7.28zM8.69 3.73C5.552 3.731 3 6.299 3 9.456c0 1.519.729 2.766 1.34 3.544l1.009-.803c-.485-.617-1.063-1.594-1.063-2.741 0-2.443 1.975-4.43 4.404-4.43h4.88l-2.858 2.877.909.915L16 4.41 11.62 0l-.908.915 2.796 2.816H8.69z"/>
    </defs>
    <g fill="none" fill-rule="evenodd" transform="translate(2 2)">
        <mask id="b" fill="#fff">
            <use xlink:href="#a"/>
        </mask>
        <use fill="#000" fill-rule="nonzero" xlink:href="#a"/>
        <g mask="url(#b)">
            <path fill="#c1c7d0" d="M-2-2h20v20H-2z"/>
        </g>
    </g>
</svg>
