<svg xmlns="http://www.w3.org/2000/svg" xmlns:xlink="http://www.w3.org/1999/xlink" width="20" height="20" viewBox="0 0 20 20">
    <defs>
        <path id="a" d="M17.428 3.696a8.926 8.926 0 0 0-4.757-2.494 8.954 8.954 0 0 0-5.203.614l.88 2.012a6.743 6.743 0 0 1 7.53 1.421c2.647 2.653 2.647 6.968 0 9.62a6.79 6.79 0 0 1-9.604 0 6.77 6.77 0 0 1-1.991-4.955l2.631.745-.89-3.519-.89-3.519-2.596 2.532-2.597 2.531 2.183.618a9.05 9.05 0 0 0 .187 2.735 8.979 8.979 0 0 0 2.413 4.386 8.916 8.916 0 0 0 6.352 2.636c2.4 0 4.655-.936 6.352-2.636a8.949 8.949 0 0 0 2.63-6.364 8.949 8.949 0 0 0-2.63-6.363z"/>
    </defs>
    <use fill="#000" fill-rule="nonzero" transform="matrix(0 1 1 0 -.059 .059)" xlink:href="#a"/>
</svg>
