<svg xmlns="http://www.w3.org/2000/svg" width="76" height="113" viewBox="0 0 76 113">
    <g fill="none" fill-rule="evenodd" opacity=".8" transform="matrix(-1 0 0 1 76 0)">
        <ellipse cx="39.767" cy="103.837" fill="#C1C7D0" rx="36.233" ry="8.395"/>
        <path fill="#7A869A" fill-rule="nonzero" d="M43.834 61.922l3.163 3.152a1.383 1.383 0 0 0 1.95 0l.405-.403 4.543 4.527a1.383 1.383 0 0 0 1.951 0l1.784-1.777 1.784 1.777a1.383 1.383 0 0 0 1.95 0l1.38-1.375-1.95-1.943-.405.402-.808-.805 1.784-1.778a1.371 1.371 0 0 0 0-1.944l-4.544-4.527.405-.402a1.371 1.371 0 0 0 0-1.944l-5.923-5.902.808-.805 3.164 3.152 1.95-1.944-6.898-6.874-1.95 1.944 1.784 1.778-.809.805-6.248-6.226 1.051-1.035a1.371 1.371 0 0 0 .011-1.944L26.338 19.853a1.383 1.383 0 0 0-1.95-.017l-1.263 1.237c-3.27-2.275-7.773-1.477-10.056 1.782a7.175 7.175 0 0 0-.05 8.167l-1.121 1.1a1.371 1.371 0 0 0-.011 1.944L29.713 52.06c.535.54 1.409.545 1.95.012l1.15-1.131 1.748 1.741a6.806 6.806 0 0 0-1.764 4.546v2.75c0 .76.617 1.375 1.38 1.375h1.379v3.806l-17.797 36.143 2.475 1.21 7.32-14.872 10.761 3.574v10.693h2.76V91.213l10.76-3.574 7.312 14.873 2.484-1.21-17.797-36.143v-3.237zm0-3.319h-8.278v-1.375a4.132 4.132 0 0 1 4.139-4.124 4.132 4.132 0 0 1 4.139 4.124v1.375zm14.604 4.124l-3.567 3.555-3.568-3.555 3.568-3.555 3.567 3.555zm-39.465-40.19a4.467 4.467 0 0 1 2.13.537l-6.054 5.96a4.395 4.395 0 0 1-.523-2.05 4.447 4.447 0 0 1 4.447-4.446zm12.85 25.478c-.031.04-.06.083-.085.127l-1.032 1.016L14.82 33.127l10.527-10.365 15.888 16.023-.69.688a1.38 1.38 0 0 0-.444.294l-8.278 8.248zm2.953.993l6.365-6.266 13.158 13.112-.404.403-5.518 5.498-.405.403-1.553-1.548c.11-.193.17-.41.174-.632v-2.75c-.005-3.794-3.09-6.869-6.898-6.873a6.835 6.835 0 0 0-2.904.661l-2.015-2.008zm3.539 39.306l-9.53-3.165 9.01-18.298h.52v21.463zm0-24.212v-2.75h2.76v2.75h-2.76zM50.603 85.15l-9.529 3.165V66.85h.52l9.01 18.298z"/>
        <path fill="#A5ADBA" fill-rule="nonzero" d="M0 22.977h2.651v2.651H0zM4.313 32.792l.016-2.745 2.74.016-.015 2.745zM20.326 10.605h2.651v2.651h-2.651zM0 0h2.651v2.651H0z"/>
    </g>
</svg>
