<svg xmlns="http://www.w3.org/2000/svg" xmlns:xlink="http://www.w3.org/1999/xlink" width="20" height="20" viewBox="0 0 20 20">
    <defs>
        <path id="a" d="M2.876 3.399v2.36H.418A.418.418 0 0 1 0 5.34V3.817c0-.231.187-.418.418-.418h2.458zM16.18 19.996h-1.524a.418.418 0 0 1-.418-.418V17.12h2.36v2.458c0 .231-.188.418-.418.418zm.418-6.28h-2.36V5.757H6.28v-2.36h9.899c.23 0 .418.188.418.419v9.898zm2.98.522c.231 0 .418.187.418.418v1.524c0 .23-.187.418-.418.418H3.817a.418.418 0 0 1-.418-.418V.418c0-.23.187-.418.418-.418H5.34c.231 0 .418.187.418.418v13.82h13.82z"/>
    </defs>
    <use fill="#000" fill-rule="nonzero" xlink:href="#a"/>
</svg>
