<svg xmlns="http://www.w3.org/2000/svg" xmlns:xlink="http://www.w3.org/1999/xlink" width="24" height="24" viewBox="0 0 24 24">
    <defs>
        <path id="a" d="M14 19a2 2 0 1 1-3.999.001A2 2 0 0 1 14 19zm0-14a2 2 0 1 1-3.999.001A2 2 0 0 1 14 5zm0 7a2 2 0 1 1-3.999.001A2 2 0 0 1 14 12z"/>
    </defs>
    <g fill="none" fill-rule="evenodd">
        <path d="M0 0h24v24H0z"/>
        <mask id="b" fill="#fff">
            <use xlink:href="#a"/>
        </mask>
        <g fill="#c1c7d0" mask="url(#b)">
            <path d="M0 0h24v24H0z"/>
        </g>
    </g>
</svg>
