<svg xmlns="http://www.w3.org/2000/svg" xmlns:xlink="http://www.w3.org/1999/xlink" width="20" height="20" viewBox="0 0 20 20">
    <defs>
        <path id="a" d="M17.793 2.209A4.098 4.098 0 0 0 14.879 1a4.1 4.1 0 0 0-2.917 1.209l-9.59 9.588a.748.748 0 0 0-.205.386l-1.154 5.925a.784.784 0 0 0 .206.673c.246.279.624.216.672.205l5.927-1.153c.147-.03.282-.1.385-.206l9.59-9.588a4.124 4.124 0 0 0 0-5.83zM7.307 16.404l-4.608.9.897-4.607 7.61-7.608 3.71 3.71-7.61 7.605zm9.428-9.423l-.757.757-3.711-3.71.757-.758c1.675-1.47 3.152-.558 3.71 0a2.63 2.63 0 0 1 0 3.71z"/>
    </defs>
    <use fill="#000" fill-rule="nonzero" xlink:href="#a"/>
</svg>
